HIERARCHY
ROOT Hips
{
	OFFSET -14.64140 90.27770 -84.91600
	CHANNELS 6 Xposition Yposition Zposition Zrotation Xrotation Yrotation
	JOINT Spine
	{
		OFFSET 0.00000 13.20850 -1.60436
		CHANNELS 3 Zrotation Xrotation Yrotation
		JOINT Spine1
		{
			OFFSET 0.00000 8.61716 0.00000
			CHANNELS 3 Zrotation Xrotation Yrotation
			JOINT Spine2
			{
				OFFSET 0.00000 8.61717 0.00000
				CHANNELS 3 Zrotation Xrotation Yrotation
				JOINT Spine3
				{
					OFFSET 0.00000 8.61717 0.00000
					CHANNELS 3 Zrotation Xrotation Yrotation
					JOINT Neck
					{
						OFFSET 0.00000 11.07920 1.10792
						CHANNELS 3 Zrotation Xrotation Yrotation
						JOINT Neck1
						{
							OFFSET 0.00000 7.08032 0.00000
							CHANNELS 3 Zrotation Xrotation Yrotation
							JOINT Head
							{
								OFFSET 0.00000 7.08031 0.00000
								CHANNELS 3 Zrotation Xrotation Yrotation
								End site
								{
									OFFSET 0.00000 0.00000 0.00000
								}
							}
						}
					}
					JOINT RightShoulder
					{
						OFFSET -0.01000 7.91373 5.19711
						CHANNELS 3 Zrotation Xrotation Yrotation
						JOINT RightArm
						{
							OFFSET -18.41580 0.00000 0.00000
							CHANNELS 3 Zrotation Xrotation Yrotation
							JOINT RightForeArm
							{
								OFFSET -29.11090 0.00000 0.00000
								CHANNELS 3 Zrotation Xrotation Yrotation
								JOINT RightHand
								{
									OFFSET -24.65040 0.00000 0.00000
									CHANNELS 3 Zrotation Xrotation Yrotation
									JOINT RightHandThumb1
									{
										OFFSET -5.35114 -0.85590 3.97906
										CHANNELS 3 Zrotation Xrotation Yrotation
										JOINT RightHandThumb2
										{
											OFFSET -4.52789 0.00000 0.00000
											CHANNELS 3 Zrotation Xrotation Yrotation
											JOINT RightHandThumb3
											{
												OFFSET -2.46976 0.00000 0.00000
												CHANNELS 3 Zrotation Xrotation Yrotation
												End site
												{
													OFFSET 0.00000 0.00000 0.00000
												}
											}
										}
									}
									JOINT RightHandIndex1
									{
										OFFSET -14.26970 0.00000 2.88139
										CHANNELS 3 Zrotation Xrotation Yrotation
										JOINT RightHandIndex2
										{
											OFFSET -5.48836 0.00000 0.00000
											CHANNELS 3 Zrotation Xrotation Yrotation
											JOINT RightHandIndex3
											{
												OFFSET -3.01859 0.00000 0.00000
												CHANNELS 3 Zrotation Xrotation Yrotation
												End site
												{
													OFFSET 0.00000 0.00000 0.00000
												}
											}
										}
									}
									JOINT RightHandMiddle1
									{
										OFFSET -14.26970 0.00000 -0.09147
										CHANNELS 3 Zrotation Xrotation Yrotation
										JOINT RightHandMiddle2
										{
											OFFSET -6.17441 0.00000 0.00000
											CHANNELS 3 Zrotation Xrotation Yrotation
											JOINT RightHandMiddle3
											{
												OFFSET -3.56743 0.00000 0.00000
												CHANNELS 3 Zrotation Xrotation Yrotation
												End site
												{
													OFFSET 0.00000 0.00000 0.00000
												}
											}
										}
									}
									JOINT RightHandRing1
									{
										OFFSET -12.69180 0.00000 -3.06433
										CHANNELS 3 Zrotation Xrotation Yrotation
										JOINT RightHandRing2
										{
											OFFSET -5.62556 0.00000 0.00000
											CHANNELS 3 Zrotation Xrotation Yrotation
											JOINT RightHandRing3
											{
												OFFSET -3.56744 0.00000 0.00000
												CHANNELS 3 Zrotation Xrotation Yrotation
												End site
												{
													OFFSET 0.00000 0.00000 0.00000
												}
											}
										}
									}
									JOINT RightHandPinky1
									{
										OFFSET -11.11390 0.00000 -6.03719
										CHANNELS 3 Zrotation Xrotation Yrotation
										JOINT RightHandPinky2
										{
											OFFSET -4.52789 0.00000 0.00000
											CHANNELS 3 Zrotation Xrotation Yrotation
											JOINT RightHandPinky3
											{
												OFFSET -2.46976 0.00000 0.00000
												CHANNELS 3 Zrotation Xrotation Yrotation
												End site
												{
													OFFSET 0.00000 0.00000 0.00000
												}
											}
										}
									}
								}
							}
						}
					}
					JOINT LeftShoulder
					{
						OFFSET 0.01000 7.91373 5.19711
						CHANNELS 3 Zrotation Xrotation Yrotation
						JOINT LeftArm
						{
							OFFSET 18.41580 0.00000 0.00000
							CHANNELS 3 Zrotation Xrotation Yrotation
							JOINT LeftForeArm
							{
								OFFSET 29.11090 0.00000 0.00000
								CHANNELS 3 Zrotation Xrotation Yrotation
								JOINT LeftHand
								{
									OFFSET 24.65040 0.00000 0.00000
									CHANNELS 3 Zrotation Xrotation Yrotation
									JOINT LeftHandThumb1
									{
										OFFSET 5.35114 -0.85590 3.97906
										CHANNELS 3 Zrotation Xrotation Yrotation
										JOINT LeftHandThumb2
										{
											OFFSET 4.52789 0.00000 0.00000
											CHANNELS 3 Zrotation Xrotation Yrotation
											JOINT LeftHandThumb3
											{
												OFFSET 2.46977 0.00000 0.00000
												CHANNELS 3 Zrotation Xrotation Yrotation
												End site
												{
													OFFSET 0.00000 0.00000 0.00000
												}
											}
										}
									}
									JOINT LeftHandIndex1
									{
										OFFSET 14.26970 0.00000 2.88139
										CHANNELS 3 Zrotation Xrotation Yrotation
										JOINT LeftHandIndex2
										{
											OFFSET 5.48836 0.00000 0.00000
											CHANNELS 3 Zrotation Xrotation Yrotation
											JOINT LeftHandIndex3
											{
												OFFSET 3.01859 0.00000 0.00000
												CHANNELS 3 Zrotation Xrotation Yrotation
												End site
												{
													OFFSET 0.00000 0.00000 0.00000
												}
											}
										}
									}
									JOINT LeftHandMiddle1
									{
										OFFSET 14.26970 0.00000 -0.09147
										CHANNELS 3 Zrotation Xrotation Yrotation
										JOINT LeftHandMiddle2
										{
											OFFSET 6.17440 0.00000 0.00000
											CHANNELS 3 Zrotation Xrotation Yrotation
											JOINT LeftHandMiddle3
											{
												OFFSET 3.56744 0.00000 0.00000
												CHANNELS 3 Zrotation Xrotation Yrotation
												End site
												{
													OFFSET 0.00000 0.00000 0.00000
												}
											}
										}
									}
									JOINT LeftHandRing1
									{
										OFFSET 12.69180 0.00000 -3.06433
										CHANNELS 3 Zrotation Xrotation Yrotation
										JOINT LeftHandRing2
										{
											OFFSET 5.62556 0.00000 0.00000
											CHANNELS 3 Zrotation Xrotation Yrotation
											JOINT LeftHandRing3
											{
												OFFSET 3.56744 0.00000 0.00000
												CHANNELS 3 Zrotation Xrotation Yrotation
												End site
												{
													OFFSET 0.00000 0.00000 0.00000
												}
											}
										}
									}
									JOINT LeftHandPinky1
									{
										OFFSET 11.11390 0.00000 -6.03719
										CHANNELS 3 Zrotation Xrotation Yrotation
										JOINT LeftHandPinky2
										{
											OFFSET 4.52789 0.00000 0.00000
											CHANNELS 3 Zrotation Xrotation Yrotation
											JOINT LeftHandPinky3
											{
												OFFSET 2.46976 0.00000 0.00000
												CHANNELS 3 Zrotation Xrotation Yrotation
												End site
												{
													OFFSET 0.00000 0.00000 0.00000
												}
											}
										}
									}
								}
							}
						}
					}
					JOINT pCube4
					{
						OFFSET 0.00000 10.91090 1.10792
						CHANNELS 3 Zrotation Xrotation Yrotation
						End site
						{
							OFFSET 0.00000 0.00000 0.00000
						}
					}
				}
			}
		}
	}
	JOINT RightUpLeg
	{
		OFFSET -9.98441 0.00000 0.00000
		CHANNELS 3 Zrotation Xrotation Yrotation
		JOINT RightLeg
		{
			OFFSET 0.00000 -42.11790 0.00000
			CHANNELS 3 Zrotation Xrotation Yrotation
			JOINT RightFoot
			{
				OFFSET 0.00000 -45.00020 -0.00001
				CHANNELS 3 Zrotation Xrotation Yrotation
				JOINT RightForeFoot
				{
					OFFSET 0.00000 -3.74820 0.00000
					CHANNELS 3 Zrotation Xrotation Yrotation
					JOINT RightToeBase
					{
						OFFSET 0.00000 0.06325 14.43120
						CHANNELS 3 Zrotation Xrotation Yrotation
						End site
						{
							OFFSET 0.00000 0.00000 0.00000
						}
					}
				}
			}
		}
	}
	JOINT LeftUpLeg
	{
		OFFSET 9.98441 0.00000 0.00000
		CHANNELS 3 Zrotation Xrotation Yrotation
		JOINT LeftLeg
		{
			OFFSET 0.00000 -42.11800 0.00000
			CHANNELS 3 Zrotation Xrotation Yrotation
			JOINT LeftFoot
			{
				OFFSET 0.00000 -45.00070 0.00000
				CHANNELS 3 Zrotation Xrotation Yrotation
				JOINT LeftForeFoot
				{
					OFFSET 0.00000 -3.74824 0.00000
					CHANNELS 3 Zrotation Xrotation Yrotation
					JOINT LeftToeBase
					{
						OFFSET 0.00000 0.06325 14.43110
						CHANNELS 3 Zrotation Xrotation Yrotation
						End site
						{
							OFFSET 0.00000 0.00000 0.00000
						}
					}
				}
			}
		}
	}
}
MOTION
Frames: 4
Frame Time: 0.050000
-0.00963012372687583 -0.01963101976124945 0.002507232361149766 0.04392539471964652 0.048099006116475884 0.009757402585346825 5.924126535641733 3.0818885692301157 -2.3884115456653667 -0.7241700949092282 3.43712795767056 0.36114402380752686 -0.554361185949088 -0.9941528983330602 0.6373602986226735 -0.2264988536294247 -0.4958501531775764 -0.3018000168797294 0.23837774344653104 11.291423470832944 -1.742471596521653 0.4810248313599346 -0.6143758201529702 -3.179196026420973 0.9660473454428039 -16.969613357471392 -0.27277375014561345 -9.30064615908328 3.332075768689309 -18.854505248782708 80.36542696920199 1.5858036309428019 -3.4596441727379648 0.5516229359166844 7.71316015703051 56.18956845108756 17.606488244913898 -0.36773552170332974 -2.910991423177869 4.47902067663845 -0.08680064888650696 -1.579567473140341 0.0034995200388105575 0.04890001562293411 -56.232034469143706 0.012998816709150087 0.01734270423576058 -56.266468461253716 -38.799486541541526 -0.018966284181512385 -0.040523654446331776 -0.03734345488848887 0.030312435130210168 0.0427156904942333 -0.00859703339225596 -0.019619867994856953 -0.025923664777432028 -36.704897243683035 -0.0008187870762590341 0.0430533124740219 0.04648341520904724 -0.009130809288903217 0.008005350261478203 0.046126168563651974 0.009391058813891882 0.047435921994384525 -19.71472156851012 -0.021644125197769953 0.03922163148869637 -0.038304403361712855 -0.01052733282640034 -0.008728703324070818 0.024763950481409013 -0.009556791841167001 0.04542516019905466 24.090217578077304 0.03991102265338627 -0.032018136717710685 28.845034178641974 0.0036217463860073627 -0.0024230231781245328 28.91200150789658 0.01957028266131355 0.025588429949868065 8.616137997268893 2.2724572561302683 15.41556320793185 -75.69204864873173 15.28185656084377 -5.559545570975297 3.23579523266122 8.281493986884781 -44.515157038938554 -20.017264565929285 -0.23625249684582475 1.069827160076916 -0.4365031060596301 0.0852797570174504 -8.139980508909744 -0.024678449750438057 -0.032336281410369885 44.6010671557946 0.0266042302889926 0.03568503920315234 44.54363608618171 12.42646227624632 -0.04600668885955628 0.04277606141340061 -0.011712779345309033 0.04812827809710948 -0.003409749800390466 -0.03378601184308518 0.02239927766633385 0.010772549824808906 11.10694626676688 -0.014402385407063775 -0.017234697816166027 0.035007174631845474 0.024403014788926442 0.042393088630873106 -0.009873110815986576 -0.024042330717854582 -0.019024387804853125 4.769007726686983 -0.036652414604493824 0.018027647273387327 0.002174355885516933 -0.010582422587513336 -0.017248310050941667 -0.02159363321333468 0.007383977057624039 -0.024487725571943605 -5.6211870241818005 -0.019531348265314205 -0.014121798118308772 -6.68197574218973 -0.01957338580864891 0.04641367375190302 -6.7142172556287605 -0.005113770376589408 -0.015205134945320825 -0.016115136599489613 0.0408467138699955 0.035346297791076876 8.061097588904145 3.5131060775356406 -19.229284738962367 -0.03574191966421592 10.376782930204024 -0.017096646448564307 -5.633605267054275 -15.62352601031789 3.1604405990588758 -0.0012373148215271156 0.012049400226514403 -0.015370323338373711 -0.027786581618467216 4.664347156903481 -0.020364312737888995 12.415348384532 -8.203232257423416 6.898428156757738 -0.022106848736702506 46.405471409166 0.02716686142839033 -4.339186138072604 -14.796777445292818 -3.851478827191335 -0.04241831297191453 -0.034111777037226426 0.000277998169130021 -0.01854902568238423 -10.793963403748982 0.0449891927129347 
-0.02141682413347433 0.0023757841653996047 -0.017174913813552135 -0.020986149354961087 -0.017837321160961716 -0.009511924495131593 5.7796400175348275 2.9949139170129526 -2.385812723929702 -0.7354609756661581 3.4028189330899212 0.35186059608738257 -0.542524610038097 -1.0608803248484908 0.6770731418829452 -0.24114037764928364 -0.5319294842852215 -0.3022136700985765 0.17891476478790067 11.47182448900294 -1.7022382058054535 0.5018959949908742 -0.6178700503867843 -3.3477708958580785 1.0334787378433974 -16.96220549500013 -0.32346073143328685 -9.429787766692693 3.3796572598918035 -18.975077692093667 79.3413659013214 1.2166528666446412 -3.4525085787455816 1.574750421464336 7.320026639037214 59.163528295782385 17.295945556484764 -0.31656320223587586 -2.9460626074394924 4.486665520768861 -0.1434376405043608 -1.5745899445492013 0.011178290761050936 0.038637452554770794 -56.27767786361975 0.046827131659857274 0.00172807048621512 -56.21393438620081 -38.760083165063186 -0.017230938701140563 -0.03547168415934521 0.018041470098187323 -0.011345945457818331 0.023038645149573787 -0.04482893605242083 0.011512644806674134 0.012737189441329367 -36.656190351881094 -0.005013051338400202 0.013675186736423022 0.03801052220281234 -0.015148562300013508 -0.010572209607303328 0.0037895238304673836 -0.027195932659180595 0.04884875536588017 -19.7786759808463 0.013963420084622955 0.016991352735502507 -0.037934334565491994 0.029121834962578558 -0.011424691970577555 -0.008760475536720451 -0.026035232905967726 -0.013672035001321485 24.005842329251397 -0.004952832536804198 -0.04592613838439418 28.899851436789167 -0.04794629369142775 0.011201745789425552 28.834178843723965 0.008582327136028536 -0.013286439958691425 8.860679304699726 2.2795639262079925 15.590301104816184 -74.99423739160319 14.376673724273259 -5.565999885197866 2.387671598627739 8.161982299811738 -45.51853120640422 -19.905453500650438 -0.27426383742363053 0.9832411187999602 -0.4528735515773105 0.10303231468058965 -8.096197823266994 -0.03170647932270619 0.001336490727806775 44.60111277230966 -0.017761095767222318 -0.03673890061064197 44.61095333882009 12.440336797876958 -0.04319128502736737 0.00599363369663104 0.024548802991949094 -0.02302832299775406 -0.03505008927538249 -0.030532675587594333 0.015103395445808625 0.04728998282212809 11.110153283981845 -0.0024039643313893354 0.03028201197094291 -0.003935197004915836 0.036795518515807375 -0.035554526941318235 0.0064019763618265255 -0.030018570584769984 0.01065681687761062 4.734479025575452 0.0389047338711788 0.04798012968270876 0.0074405914831234005 0.04923316443896946 0.03181756656903148 -0.024068619307335417 -0.02064070333832363 0.04525638865551597 -5.613466162972192 -0.0028606777496201965 -0.018575306169071087 -6.684101291686901 0.027024368681745015 0.03093807596311107 -6.728654922472012 0.03248403053405645 0.005011211823813345 -0.0171720659319442 -0.013084616713685585 -0.02020339110858119 8.069246731351347 3.462121217571321 -19.17466220868845 0.031105456355821202 10.389222467153935 0.014324805184901007 -5.662977894202341 -15.687625241556004 3.2253125462428907 -0.026797321838909167 0.02096113502207869 0.040907201684838135 0.030001426015436275 4.718959104415244 -0.030896649084344783 12.479003622381853 -8.221432618563425 6.924603029089759 0.011273122592435115 46.344082350187335 0.017577435272135636 -4.332742986992915 -14.78917025025347 -3.830452794929912 0.012648341011167815 0.021023505165821597 -0.0023733042764389964 0.0011233664280198101 -10.713503387977333 0.038329970046804815 
-0.01710344958250278 -0.04616590840756757 0.011878506784306235 -0.0023111958831438534 -0.0461217428647101 -0.044812076346419094 5.6017402712705895 3.0088859047585315 -2.3376419055433812 -0.7048390696116557 3.51185146521128 0.3736133464147884 -0.5938530391196261 -1.076929790150577 0.7144815252400043 -0.2846557929723833 -0.4930100941490488 -0.2756564490386669 0.24821643518098635 11.712823137936333 -1.7841230455453447 0.4452940131537714 -0.6413013718456123 -3.475199840837333 1.0653553366690602 -17.011539350115616 -0.3102235384176797 -9.632883830027854 3.4111074403244372 -19.031202693143168 78.02132252353464 0.7719862280431682 -2.9274143438421976 3.351872759359985 7.038504933386775 63.886278184662636 17.09412020073749 -0.3997294514032909 -3.3104513031990788 4.511534504270326 -0.1492787455910894 -1.5934322130741543 -0.0009293270516756497 -0.049248078232298806 -56.26643581142507 0.0194140824870774 0.04368690045462212 -56.204515225852994 -38.75480091980733 -0.0005114358885983262 0.04890868050643761 -0.04663545992843026 0.033758802159611065 -0.022123694184534415 0.009165593362273749 0.021940733793464694 -0.045594171428292286 -36.69354972444745 0.005056552769625437 -0.005838073381681351 -0.0025242663116816395 -0.027549312212644138 0.000863016893094656 -0.010994204314299847 -0.00023399023347903138 0.02555304383179695 -19.764538465867314 -0.036687429201372225 0.031116958197358907 -0.01721737087453926 -0.023696622528113116 -0.028804435238286238 0.007700789116009588 -0.021740750477285773 -0.0031761886960442517 24.010407948875446 -0.02317497697840365 -0.028890633552850615 28.874181470193367 -0.008751079016564463 0.018316880560349448 28.835287359947326 0.02545757512259228 0.015215726926542586 8.960385516284651 2.2819017631427845 15.767108780356008 -74.45925552036647 13.651460300043771 -5.6475889183515084 1.3286650716930208 8.166205976418501 -46.650510844278976 -19.879253315708176 -0.2475398112363909 0.7886968671976268 -0.47924733406510794 0.05864084022814917 -8.131189267276923 0.02348132260045401 0.003208331079291634 44.569146331288444 -0.01833637803637189 -0.018925074460319505 44.60311945133321 12.42208436091547 -0.024561139854033257 -0.01684511973483535 0.03153532089258893 0.004012094876991027 -0.029897776545178587 -0.015856334762192968 0.03433138282673702 0.0027330649544576977 11.118578116931879 0.01951241898084667 -0.032162085814400505 -0.0020205757422825854 -0.018141179886668458 0.02481917597598654 -0.043075690364499125 0.021929489323066 0.003857334245063637 4.808370345505085 -0.04067927324025726 -0.026082369567191375 0.04188948087202597 -0.034704591449226545 -0.005003449500883761 -0.012919539278697026 -0.001989227794082747 0.020285941780308337 -5.59527307008348 0.03188531669917067 0.02770232354602555 -6.715584328256482 -0.03706024714446557 0.035862405253122086 -6.70668024977575 0.029343977031023257 -0.016146180976526935 -0.026739636175594467 -0.042005719818179556 -0.04389655444808909 8.07163501216188 3.531149047752379 -19.253420522759622 -0.01720958203870588 10.350550607003054 -0.023639146293633752 -5.599464783671996 -15.665219282101068 3.222535489542237 -0.04669976395551526 0.016230726927019396 0.015229539297605435 0.030251681264816768 4.72676641054517 -0.018333499623590065 12.486232267696705 -8.229515372389228 6.874668645702847 0.013967529622313095 46.33211973237036 0.04350800810138817 -4.295682733311036 -14.700752393647154 -3.866952058889023 -0.049424288830136276 -0.043514237169118244 -0.04949667264082688 -0.027456266988301222 -10.72076787980241 -0.03142982531982532 
0.003290572709013317 -0.017709906139628834 -0.010443431772164172 0.012839122916878418 -0.01990527521745465 -0.03313742447469703 5.3137495707541955 3.02716851459881 -2.243212517017739 -0.7318239386412448 3.5247704528201487 0.393147467814342 -0.5935559035284076 -1.0969513437890572 0.8585828513845329 -0.31293469729863044 -0.5056223661360078 -0.2207574304508403 0.2558624901305611 11.986201219017412 -1.7704219279738393 0.4826588880856238 -0.5644163749076611 -3.624149185480547 1.0717838778317579 -17.014172727001352 -0.3711140141783423 -9.77578665598442 3.352787634096656 -19.013040815643485 76.89514402210052 0.4615328612975462 -1.9650719238205812 5.127673036050539 6.90088886393134 68.75931761099157 17.276493245573697 -0.43507395457544046 -3.841275868710064 4.551086004692863 -0.12503543350271154 -1.5443683017148253 -0.024466039068968652 -0.022800957350779208 -56.231528923730686 -0.020877016025196357 -0.02537859671246633 -56.19928651448667 -38.746149326492514 0.027680648060865655 -0.006491988421548325 0.006653304244480376 -0.03285214836795861 -0.006049548296445772 0.004189983907648699 -0.006161666891531697 -0.033762419634455816 -36.710544946903404 0.04888723567616814 -0.015513978967870878 0.005966541079069171 0.04467552391715675 -0.0022154484053480317 0.011677919695903606 -0.0399672373964412 -0.016587994888256033 -19.765400626747763 0.027296293155442925 0.03664765381342425 -0.022089420308165714 0.01587445926364143 0.026797111486679733 0.04806178194531577 -0.009008439458651471 -0.03994986380467479 24.0176582485707 -0.043566620370480175 -0.020772829919070573 28.820649062503502 0.013512026686163074 -0.03023817978096024 28.91110255565576 -0.008980432896285716 0.00118488115237711 9.049143792893268 2.213162591291605 15.905455062810777 -74.05388970979688 13.1910940705787 -5.80562053019874 0.346440376244738 8.26167149451951 -47.433895462132405 -19.974086875291206 -0.006977788308602656 0.49116718785313684 -0.4363518796054992 0.05280016252677014 -8.07390139995329 0.02805016585560169 0.028890172910778993 44.61147540594826 0.015310386106523242 -0.000997009452400829 44.576881841848824 12.501897509349316 -0.003155160895389825 -0.044986231221237176 -0.042431302010708806 0.004013361737270787 0.032380589555321 0.042201699018972375 -0.030891588230546562 0.02570383214893646 11.056489716290178 0.02540126312186403 0.040649154557167305 -0.015021714734325335 -0.04700386231565777 0.023612394074287252 0.010694953460917164 -0.03652086788709849 -0.011254889730240083 4.807484892011023 0.02143604380771369 -0.03290844196646856 -0.03713225642968728 -0.04074123641857638 0.009119028181631024 0.002966798673435789 0.04794987718917688 -0.02704684127397761 -5.633264021548936 -0.006263681169111404 -0.04370726169804102 -6.721491850802282 0.03081074742205355 0.0360385783648692 -6.729103442560755 -0.03034974429040299 -0.0259795504665261 0.005960011674963695 -0.014174799012428662 -0.03132612528981885 8.030335212974332 3.4886095292515913 -19.22451470347434 0.009919921989734218 10.357311331991115 0.009116061232152868 -5.636087765138556 -15.690734628649421 3.1637839130352585 0.049150250999759455 -0.0011525197489350323 0.03588626420714138 -0.037022744371107294 4.697260948971449 -0.02877228195986033 12.419453328608073 -8.276481319431861 6.892778252526951 0.0033351818236523763 46.4010274058376 -0.04192300127680078 -4.302641224960321 -14.713819286704592 -3.831661895277164 -0.044304351686402024 0.021826294317560415 -0.0067087552754599745 -0.01776136075708245 -10.705782688413848 0.008570849099993106 
